<svg width="141" height="30" viewBox="0 0 141 30" fill="none" xmlns="http://www.w3.org/2000/svg">
<path d="M45.0273 7.63477H47.7031L51.0234 17.6543L54.3926 7.63477H57.0293L59.4512 22H56.8145L55.2715 12.9277L52.2148 22H49.8027L46.7852 12.9277L45.2129 22H42.5469L45.0273 7.63477ZM69.207 11.375H71.8633V22H69.207V20.877C68.6862 21.3717 68.1621 21.7298 67.6348 21.9512C67.1139 22.166 66.5475 22.2734 65.9355 22.2734C64.5618 22.2734 63.3737 21.7428 62.3711 20.6816C61.3685 19.6139 60.8672 18.2891 60.8672 16.707C60.8672 15.0664 61.3522 13.722 62.3223 12.6738C63.2923 11.6257 64.4707 11.1016 65.8574 11.1016C66.4954 11.1016 67.0944 11.222 67.6543 11.4629C68.2142 11.7038 68.7318 12.0651 69.207 12.5469V11.375ZM66.4043 13.5625C65.5775 13.5625 64.8906 13.8555 64.3438 14.4414C63.7969 15.0208 63.5234 15.7663 63.5234 16.6777C63.5234 17.5957 63.8001 18.3509 64.3535 18.9434C64.9134 19.5358 65.6003 19.832 66.4141 19.832C67.2539 19.832 67.9505 19.5423 68.5039 18.9629C69.0573 18.377 69.334 17.612 69.334 16.668C69.334 15.7435 69.0573 14.9948 68.5039 14.4219C67.9505 13.849 67.2507 13.5625 66.4043 13.5625ZM73.9336 11.375H76.2188V12.7129C76.4661 12.1855 76.7949 11.7852 77.2051 11.5117C77.6152 11.2383 78.0645 11.1016 78.5527 11.1016C78.8978 11.1016 79.2591 11.1927 79.6367 11.375L78.8066 13.6699C78.4941 13.5137 78.237 13.4355 78.0352 13.4355C77.625 13.4355 77.2767 13.6895 76.9902 14.1973C76.7103 14.7051 76.5703 15.7012 76.5703 17.1855L76.5801 17.7031V22H73.9336V11.375ZM80.9844 7.27344H83.6504V15.7598L87.5762 11.375H90.916L86.3457 16.4727L91.4727 22H88.1621L83.6504 17.1074V22H80.9844V7.27344ZM103.211 17.459H94.6465C94.7702 18.2142 95.099 18.8164 95.6328 19.2656C96.1732 19.7083 96.86 19.9297 97.6934 19.9297C98.6895 19.9297 99.5456 19.5814 100.262 18.8848L102.508 19.9395C101.948 20.7337 101.277 21.3229 100.496 21.707C99.7148 22.0846 98.7871 22.2734 97.7129 22.2734C96.0462 22.2734 94.6888 21.7493 93.6406 20.7012C92.5924 19.6465 92.0684 18.3281 92.0684 16.7461C92.0684 15.125 92.5892 13.7806 93.6309 12.7129C94.679 11.6387 95.9909 11.1016 97.5664 11.1016C99.2396 11.1016 100.6 11.6387 101.648 12.7129C102.697 13.7806 103.221 15.1934 103.221 16.9512L103.211 17.459ZM100.535 15.3594C100.359 14.7669 100.011 14.2852 99.4902 13.9141C98.9759 13.543 98.377 13.3574 97.6934 13.3574C96.9512 13.3574 96.3001 13.5658 95.7402 13.9824C95.3887 14.2428 95.0632 14.7018 94.7637 15.3594H100.535ZM105.701 7.45898H108.357V11.375H109.939V13.6699H108.357V22H105.701V13.6699H104.334V11.375H105.701V7.45898ZM112.42 7C112.889 7 113.289 7.16927 113.621 7.50781C113.96 7.84635 114.129 8.25651 114.129 8.73828C114.129 9.21354 113.963 9.62044 113.631 9.95898C113.299 10.291 112.902 10.457 112.439 10.457C111.964 10.457 111.557 10.2878 111.219 9.94922C110.887 9.60417 110.721 9.1875 110.721 8.69922C110.721 8.23047 110.887 7.83008 111.219 7.49805C111.551 7.16602 111.951 7 112.42 7ZM111.082 11.375H113.758V22H111.082V11.375ZM116.18 11.375H118.836V12.459C119.441 11.9512 119.988 11.5996 120.477 11.4043C120.971 11.2025 121.476 11.1016 121.99 11.1016C123.045 11.1016 123.94 11.4694 124.676 12.2051C125.294 12.8301 125.604 13.7546 125.604 14.9785V22H122.967V17.3418C122.967 16.0723 122.908 15.2292 122.791 14.8125C122.68 14.3958 122.482 14.0801 122.195 13.8652C121.915 13.6439 121.567 13.5332 121.15 13.5332C120.61 13.5332 120.145 13.7155 119.754 14.0801C119.37 14.4382 119.103 14.9362 118.953 15.5742C118.875 15.9062 118.836 16.6257 118.836 17.7324V22H116.18V11.375ZM136.043 11.375H138.699V20.4766C138.699 22.2734 138.338 23.5951 137.615 24.4414C136.645 25.5872 135.184 26.1602 133.23 26.1602C132.189 26.1602 131.313 26.0299 130.604 25.7695C129.894 25.5091 129.295 25.125 128.807 24.6172C128.318 24.1159 127.957 23.5039 127.723 22.7812H130.662C130.923 23.0807 131.258 23.3053 131.668 23.4551C132.078 23.6113 132.563 23.6895 133.123 23.6895C133.839 23.6895 134.415 23.5788 134.852 23.3574C135.288 23.1361 135.594 22.8496 135.77 22.498C135.952 22.1465 136.043 21.541 136.043 20.6816C135.574 21.1504 135.083 21.4889 134.568 21.6973C134.054 21.8991 133.471 22 132.82 22C131.395 22 130.19 21.4857 129.207 20.457C128.224 19.4284 127.732 18.1263 127.732 16.5508C127.732 14.8646 128.253 13.5104 129.295 12.4883C130.239 11.5638 131.365 11.1016 132.674 11.1016C133.286 11.1016 133.862 11.2155 134.402 11.4434C134.949 11.6647 135.496 12.0326 136.043 12.5469V11.375ZM133.279 13.5918C132.439 13.5918 131.746 13.875 131.199 14.4414C130.652 15.0013 130.379 15.7077 130.379 16.5605C130.379 17.446 130.659 18.1719 131.219 18.7383C131.779 19.3047 132.482 19.5879 133.328 19.5879C134.155 19.5879 134.835 19.3112 135.369 18.7578C135.91 18.2044 136.18 17.4785 136.18 16.5801C136.18 15.6947 135.91 14.9753 135.369 14.4219C134.829 13.8685 134.132 13.5918 133.279 13.5918Z" fill="#00374A"/>
<g clip-path="url(#clip0_1_555)">
<path d="M29.9953 23.2406C29.9813 23.5453 29.8969 23.8453 29.7422 24.1172L26.9016 29.0391C26.7339 29.331 26.4923 29.5736 26.2009 29.7424C25.9096 29.9111 25.5789 30 25.2422 30H9.47812C8.79375 30 8.16094 29.6344 7.81875 29.0437L0.257812 15.9609C0.084375 15.6609 0 15.3328 0 15C0 14.6672 0.065625 14.3203 0.267188 13.9828L7.82344 0.95625C8.16563 0.365625 8.79844 0 9.47812 0H25.2422C25.9266 0 26.5594 0.365625 26.9016 0.95625C26.9016 0.95625 29.6344 5.43281 29.8312 5.75156C30.0281 6.07031 29.9953 6.47344 29.9953 6.80156C29.9953 7.08281 29.9156 7.46719 29.8406 7.77187C29.7656 8.07656 27.4781 17.3484 27.4781 17.3484L22.4859 6.73125H12.2531L7.4625 15L12.2531 23.2687H22.4812L29.9953 23.2406Z" fill="url(#paint0_linear_1_555)"/>
<path d="M26.3485 14.9953L29.8172 22.35C29.9488 22.6294 30.0107 22.9366 29.9977 23.2452C29.9846 23.5537 29.8969 23.8546 29.7422 24.1219L22.486 23.2734L26.3485 14.9953Z" fill="url(#paint1_linear_1_555)"/>
</g>
<defs>
<linearGradient id="paint0_linear_1_555" x1="8.75443" y1="29.8773" x2="25.9452" y2="0.107507" gradientUnits="userSpaceOnUse">
<stop offset="0.4147" stop-color="#51D3D9"/>
<stop offset="1" stop-color="#C8FF8C"/>
</linearGradient>
<linearGradient id="paint1_linear_1_555" x1="25.0494" y1="24.7485" x2="30.8506" y2="17.9386" gradientUnits="userSpaceOnUse">
<stop offset="0.4147" stop-color="#51D3D9"/>
<stop offset="1" stop-color="#5A919B"/>
</linearGradient>
<clipPath id="clip0_1_555">
<rect width="30" height="30" fill="white"/>
</clipPath>
</defs>
</svg>
